<svg xmlns="http://www.w3.org/2000/svg" xmlns:xlink="http://www.w3.org/1999/xlink" width="200" zoomAndPan="magnify" viewBox="0 0 150 37.5" height="50" preserveAspectRatio="xMidYMid meet" version="1.0"><defs><clipPath id="7fe8b42093"><path d="M 1 5.832031 L 85 5.832031 L 85 30.988281 L 1 30.988281 Z M 1 5.832031 " clip-rule="nonzero"/></clipPath><clipPath id="892cafa543"><path d="M 65 5.832031 L 149 5.832031 L 149 30.988281 L 65 30.988281 Z M 65 5.832031 " clip-rule="nonzero"/></clipPath></defs><g clip-path="url(#7fe8b42093)"><path fill="#caa66c" d="M 1.667969 17.898438 C 2.164062 18.136719 2.292969 18.390625 2.488281 19.59375 C 2.617188 20.367188 2.792969 21.117188 2.878906 21.246094 C 3.203125 21.761719 3.914062 21.460938 5.035156 20.34375 C 5.769531 19.617188 6.546875 19.078125 7.128906 18.886719 C 7.992188 18.605469 8.230469 18.605469 9.765625 18.992188 C 10.691406 19.230469 11.382812 19.488281 11.273438 19.574219 C 11.1875 19.65625 10.324219 19.980469 9.375 20.300781 C 8.425781 20.601562 7.496094 20.945312 7.324219 21.074219 C 6.761719 21.417969 7.238281 21.503906 8.535156 21.265625 C 9.222656 21.136719 10.304688 21.074219 10.886719 21.136719 C 12.074219 21.265625 13.195312 20.902344 13.542969 20.324219 C 13.714844 19.980469 13.84375 19.980469 15.65625 20.34375 C 17.0625 20.625 18.570312 20.730469 21.269531 20.753906 L 24.960938 20.753906 L 23.535156 22.0625 C 22.757812 22.789062 22.175781 23.457031 22.242188 23.519531 C 22.347656 23.628906 23.082031 23.390625 25.5 22.402344 C 26.300781 22.082031 27.269531 21.222656 27.445312 20.667969 C 27.488281 20.496094 28.046875 20.238281 28.675781 20.085938 C 29.796875 19.785156 33.402344 18.136719 35.992188 16.699219 L 37.332031 15.96875 L 38.582031 16.441406 C 39.253906 16.71875 40.160156 17.082031 40.570312 17.253906 L 41.324219 17.578125 L 40.570312 17.707031 C 40.160156 17.769531 39.359375 17.898438 38.777344 17.964844 C 37.828125 18.09375 37.308594 18.5 38.128906 18.5 C 38.347656 18.5 39.230469 18.648438 40.09375 18.863281 C 41.539062 19.1875 41.777344 19.207031 42.902344 18.90625 C 43.636719 18.714844 44.347656 18.628906 44.671875 18.734375 C 44.972656 18.820312 46.527344 19.273438 48.125 19.765625 C 49.722656 20.238281 51.515625 20.6875 52.117188 20.773438 C 52.703125 20.859375 53.390625 20.988281 53.628906 21.074219 C 54.0625 21.222656 54.0625 21.222656 53.628906 21.351562 C 52.441406 21.695312 47.714844 22.789062 47.390625 22.789062 C 47.195312 22.789062 46.742188 22.574219 46.398438 22.316406 C 45.773438 21.867188 42.40625 21.074219 41.109375 21.09375 L 40.460938 21.09375 L 41 21.351562 C 44.109375 22.769531 45.363281 23.433594 45.101562 23.519531 C 42.769531 24.335938 39.835938 25.148438 39.273438 25.148438 C 38.84375 25.148438 38.304688 24.9375 37.785156 24.527344 C 36.425781 23.457031 34.289062 22.683594 33.640625 23.027344 C 33.207031 23.242188 33.078125 23.96875 33.445312 24.183594 C 33.878906 24.441406 33.640625 24.914062 32.992188 25.042969 C 32.085938 25.257812 31.761719 26.117188 32.367188 26.757812 C 32.648438 27.058594 32.796875 27.511719 32.796875 28.066406 C 32.796875 29.3125 33.1875 29.742188 34.222656 29.613281 C 35.238281 29.484375 36.035156 29.804688 36.035156 30.320312 C 36.035156 30.75 36.707031 31.027344 37.308594 30.835938 C 37.632812 30.75 37.785156 30.363281 37.980469 29.183594 C 38.476562 26.351562 38.800781 25.902344 41.175781 25.0625 C 43.09375 24.378906 43.3125 24.378906 42.726562 24.976562 C 42.46875 25.257812 41.929688 25.964844 41.519531 26.585938 C 41.109375 27.210938 40.675781 27.765625 40.570312 27.832031 C 40.441406 27.894531 40.355469 28.089844 40.355469 28.261719 C 40.355469 28.734375 43.765625 26.285156 44.476562 25.300781 C 44.820312 24.828125 45.101562 24.3125 45.101562 24.140625 C 45.101562 23.992188 45.363281 23.753906 45.6875 23.628906 C 46.160156 23.457031 50.519531 22.359375 50.757812 22.359375 C 50.800781 22.359375 50.109375 23.089844 49.246094 23.992188 C 47.800781 25.492188 47.371094 26.222656 47.910156 26.222656 C 48.015625 26.222656 48.125 26.160156 48.125 26.050781 C 48.125 25.964844 48.535156 25.644531 49.054688 25.320312 C 49.570312 25 50.609375 24.097656 51.363281 23.304688 C 52.617188 22.019531 52.832031 21.890625 53.933594 21.695312 C 54.601562 21.589844 56.308594 21.503906 57.730469 21.503906 C 59.15625 21.503906 61.984375 21.394531 64.035156 21.265625 C 67.25 21.050781 68.007812 21.050781 69.863281 21.375 C 71.03125 21.566406 72.777344 21.71875 73.726562 21.71875 C 75.390625 21.71875 80.332031 21.375 81.261719 21.179688 C 81.5 21.136719 82.039062 21.09375 82.472656 21.09375 C 83.355469 21.074219 84.328125 20.429688 84.089844 20.042969 C 83.980469 19.851562 83.789062 19.894531 83.398438 20.128906 C 82.621094 20.644531 78.542969 21.09375 74.460938 21.136719 C 71.375 21.160156 70.640625 21.09375 68.957031 20.667969 C 66.257812 19.980469 64.292969 19.164062 60.644531 17.277344 C 56.027344 14.851562 55.140625 14.445312 53.132812 13.78125 C 51.664062 13.285156 51.234375 13.050781 50.910156 12.515625 C 50.476562 11.828125 49.183594 10.777344 47.867188 10.113281 C 47.023438 9.683594 45.964844 9.574219 45.964844 9.898438 C 45.964844 10.15625 47.457031 11.355469 48.878906 12.257812 L 49.960938 12.945312 L 48.320312 12.816406 C 45.492188 12.601562 42.167969 13.242188 39.058594 14.617188 C 36.640625 15.6875 36.121094 15.625 35.777344 14.253906 C 35.582031 13.480469 35.195312 12.902344 34.007812 11.699219 C 32.605469 10.242188 31.933594 9.8125 31.933594 10.347656 C 31.933594 10.453125 32.042969 10.5625 32.148438 10.5625 C 32.28125 10.5625 32.796875 11.441406 33.335938 12.492188 L 34.289062 14.445312 L 33.488281 14.296875 C 33.058594 14.230469 31.871094 13.800781 30.855469 13.351562 C 29.839844 12.902344 28.738281 12.449219 28.414062 12.363281 C 27.507812 12.148438 26.859375 10.925781 26.363281 8.546875 C 26.128906 7.410156 25.804688 6.3125 25.675781 6.144531 C 25.308594 5.714844 24.679688 5.757812 23.96875 6.292969 C 23.429688 6.679688 23.300781 6.699219 22.890625 6.441406 C 22.5 6.207031 22.347656 6.207031 21.832031 6.484375 C 21.3125 6.785156 21.25 6.957031 21.226562 7.988281 C 21.207031 8.953125 21.097656 9.210938 20.621094 9.617188 C 19.933594 10.242188 19.910156 10.496094 20.601562 11.121094 C 21.140625 11.613281 21.335938 12.492188 20.925781 12.492188 C 20.558594 12.492188 20.664062 14.359375 21.054688 14.507812 C 21.917969 14.851562 23.257812 14.445312 24.269531 13.566406 C 24.789062 13.113281 27.097656 12.40625 27.421875 12.621094 C 27.550781 12.6875 28.136719 12.921875 28.738281 13.136719 L 29.820312 13.523438 L 28.136719 13.800781 C 27.226562 13.972656 26.429688 14.210938 26.386719 14.335938 C 26.300781 14.617188 28.632812 15.066406 30.121094 15.066406 C 30.703125 15.066406 31.546875 14.960938 31.976562 14.851562 C 32.648438 14.660156 33.101562 14.722656 34.65625 15.195312 L 36.511719 15.753906 L 35.820312 16.160156 C 35.433594 16.398438 34.351562 16.996094 33.402344 17.46875 C 31.976562 18.199219 31.609375 18.304688 31.308594 18.113281 C 30.121094 17.234375 29.515625 16.996094 27.855469 16.699219 C 25.675781 16.289062 25.675781 16.289062 25.675781 16.570312 C 25.675781 16.675781 25.804688 16.785156 25.976562 16.785156 C 26.148438 16.785156 26.753906 17.105469 27.335938 17.511719 C 27.941406 17.921875 28.824219 18.390625 29.34375 18.5625 C 30.230469 18.863281 30.25 18.886719 29.796875 19.121094 C 29.105469 19.507812 25.804688 20.171875 23.796875 20.34375 C 22.824219 20.410156 21.117188 20.410156 19.976562 20.324219 C 17.988281 20.171875 17.925781 20.171875 17.6875 19.550781 C 17.320312 18.691406 16.003906 17.46875 14.40625 16.546875 C 13.648438 16.097656 13.023438 15.773438 12.980469 15.816406 C 12.894531 15.902344 14.75 18.371094 15.507812 19.1875 C 15.785156 19.53125 15.960938 19.785156 15.832031 19.785156 C 15.332031 19.785156 7.992188 18.179688 7.886719 18.027344 C 7.433594 17.511719 6.65625 15.730469 6.375 14.617188 C 6.117188 13.628906 5.792969 12.984375 5.359375 12.578125 L 4.734375 12 L 4.214844 12.558594 C 3.613281 13.199219 3.503906 13.222656 2.683594 12.921875 C 2.207031 12.75 2.035156 12.792969 1.582031 13.285156 C 1.019531 13.886719 0.914062 14.722656 1.300781 15.5625 C 1.453125 15.925781 1.472656 16.3125 1.324219 16.847656 C 1.105469 17.578125 1.128906 17.664062 1.667969 17.898438 Z M 1.839844 13.695312 C 2.382812 13.15625 2.921875 13.285156 3.804688 14.1875 C 5.035156 15.433594 6.09375 16.785156 5.8125 16.785156 C 5.683594 16.785156 4.886719 16.289062 4.042969 15.710938 C 3.203125 15.109375 2.359375 14.636719 2.164062 14.636719 C 1.972656 14.660156 2.101562 14.808594 2.488281 15.023438 C 3.222656 15.410156 5.402344 17.039062 5.316406 17.125 C 5.296875 17.148438 4.519531 16.976562 3.613281 16.71875 C 2.144531 16.3125 1.949219 16.183594 1.753906 15.605469 C 1.429688 14.636719 1.453125 14.058594 1.839844 13.695312 Z M 2.617188 16.828125 C 3.136719 16.890625 3.890625 17.082031 4.300781 17.277344 L 5.058594 17.597656 L 3.523438 17.621094 C 1.949219 17.640625 1.710938 17.578125 1.710938 17.039062 C 1.710938 16.804688 1.925781 16.761719 2.617188 16.828125 Z M 4.023438 18.929688 C 4.710938 18.800781 5.511719 18.628906 5.8125 18.5625 C 6.289062 18.457031 6.246094 18.519531 5.554688 19.058594 C 5.101562 19.402344 4.691406 19.851562 4.625 20.066406 C 4.539062 20.28125 4.257812 20.601562 3.957031 20.773438 C 3.265625 21.222656 2.792969 20.859375 2.792969 19.871094 C 2.792969 19.1875 2.8125 19.164062 4.023438 18.929688 Z M 4.300781 18.136719 C 5.445312 18.09375 5.597656 18.136719 5.164062 18.304688 C 4.863281 18.433594 4.214844 18.605469 3.699219 18.691406 C 2.898438 18.84375 2.769531 18.820312 2.835938 18.519531 C 2.898438 18.265625 3.203125 18.179688 4.300781 18.136719 Z M 4.734375 12.707031 C 5.121094 12.707031 5.640625 13.628906 6.007812 14.980469 L 6.417969 16.460938 L 5.164062 15.066406 C 3.980469 13.757812 3.933594 13.671875 4.238281 13.199219 C 4.433594 12.921875 4.648438 12.707031 4.734375 12.707031 Z M 11.578125 20.023438 C 12.9375 19.699219 13.21875 19.765625 12.808594 20.324219 C 12.546875 20.667969 12.183594 20.753906 10.820312 20.816406 C 9.265625 20.859375 9.203125 20.859375 9.808594 20.582031 C 10.152344 20.410156 10.953125 20.171875 11.578125 20.023438 Z M 14.878906 17.210938 C 15.464844 17.535156 17.46875 19.507812 17.46875 19.785156 C 17.46875 20.367188 16.152344 19.507812 15.160156 18.265625 C 14.339844 17.234375 14.253906 16.871094 14.878906 17.210938 Z M 21.054688 9.726562 C 21.464844 9.382812 21.59375 9.082031 21.527344 8.589844 C 21.484375 8.246094 21.527344 7.945312 21.617188 7.964844 C 21.722656 7.988281 21.851562 7.988281 21.960938 7.988281 C 22.199219 7.988281 24.355469 9.789062 24.722656 10.304688 C 25.027344 10.753906 25.003906 10.753906 23.472656 10.21875 C 21.269531 9.488281 21.140625 9.597656 23.277344 10.453125 C 25.566406 11.355469 25.738281 11.550781 24.550781 11.71875 C 23.148438 11.933594 20.492188 11.035156 20.492188 10.347656 C 20.492188 10.285156 20.753906 10.003906 21.054688 9.726562 Z M 21.398438 12.34375 C 21.59375 11.828125 21.765625 11.65625 22.003906 11.761719 C 22.175781 11.828125 23.148438 11.957031 24.164062 12.042969 L 25.996094 12.191406 L 24.140625 12.363281 C 23.105469 12.449219 22.15625 12.621094 22.003906 12.707031 C 21.851562 12.792969 22.394531 12.816406 23.214844 12.75 L 24.703125 12.644531 L 24.011719 13.222656 C 23.167969 13.929688 22.070312 14.402344 21.550781 14.273438 C 21.074219 14.144531 21.011719 13.394531 21.398438 12.34375 Z M 21.832031 6.957031 C 22.5 6.292969 23.363281 6.9375 24.808594 9.144531 C 25.414062 10.046875 25.890625 10.820312 25.890625 10.839844 C 25.890625 10.863281 25.265625 10.304688 24.507812 9.597656 C 23.730469 8.867188 22.757812 8.09375 22.347656 7.878906 C 21.484375 7.429688 21.441406 7.34375 21.832031 6.957031 Z M 24.941406 21.503906 C 25.804688 20.96875 26.96875 20.601562 26.96875 20.859375 C 26.96875 21.308594 24.789062 22.574219 24.011719 22.574219 C 23.558594 22.574219 23.988281 22.082031 24.941406 21.503906 Z M 24.3125 6.570312 C 24.855469 6.164062 25.414062 6.207031 25.542969 6.636719 C 25.804688 7.496094 26.320312 10.199219 26.234375 10.285156 C 26.128906 10.390625 23.96875 7.324219 23.96875 7.042969 C 23.945312 6.9375 24.121094 6.722656 24.3125 6.570312 Z M 28.804688 17.296875 C 29.90625 17.554688 31.070312 18.136719 31.070312 18.433594 C 31.070312 18.691406 29.234375 18.265625 28.4375 17.8125 C 27.292969 17.167969 27.421875 16.996094 28.804688 17.296875 Z M 30.964844 14.101562 C 31.695312 14.210938 31.914062 14.316406 31.761719 14.464844 C 31.480469 14.746094 28.4375 14.765625 28.003906 14.507812 C 27.574219 14.230469 29.777344 13.910156 30.964844 14.101562 Z M 32.496094 25.902344 C 32.582031 25.707031 32.882812 25.449219 33.1875 25.34375 C 33.769531 25.128906 36.898438 25.320312 36.898438 25.578125 C 36.898438 25.664062 36.382812 25.878906 35.753906 26.074219 C 34.890625 26.351562 34.804688 26.394531 35.386719 26.328125 C 35.796875 26.285156 36.488281 26.179688 36.898438 26.117188 L 37.65625 25.988281 L 36.792969 26.523438 C 35.066406 27.597656 35.066406 27.597656 37.332031 26.695312 C 37.699219 26.542969 36.402344 28.066406 35.734375 28.605469 C 35.476562 28.796875 34.957031 29.054688 34.546875 29.183594 C 33.597656 29.503906 33.230469 29.226562 33.230469 28.152344 C 33.230469 27.660156 33.058594 27.144531 32.796875 26.84375 C 32.300781 26.246094 32.34375 26.328125 32.496094 25.902344 Z M 34.179688 12.257812 C 35.152344 13.199219 35.777344 14.316406 35.519531 14.574219 C 35.238281 14.851562 34.65625 14.273438 33.941406 13.007812 C 33.554688 12.320312 33.230469 11.65625 33.230469 11.527344 C 33.230469 11.421875 33.660156 11.742188 34.179688 12.257812 Z M 34.246094 23.457031 C 34.589844 23.457031 35.28125 23.648438 35.820312 23.882812 L 36.792969 24.292969 L 35.820312 24.183594 L 34.847656 24.078125 L 35.691406 24.398438 C 36.921875 24.871094 36.898438 24.9375 35.476562 24.9375 C 34.375 24.9375 34.15625 24.871094 33.964844 24.441406 C 33.554688 23.648438 33.617188 23.433594 34.246094 23.457031 Z M 36.488281 28.390625 C 37.460938 27.445312 37.761719 27.359375 37.289062 28.195312 C 36.792969 29.074219 36.207031 29.632812 35.90625 29.503906 C 35.734375 29.441406 35.605469 29.375 35.605469 29.332031 C 35.605469 29.3125 36.015625 28.882812 36.488281 28.390625 Z M 37.027344 29.011719 C 37.351562 28.539062 37.632812 28.152344 37.65625 28.152344 C 37.804688 28.152344 37.460938 30 37.265625 30.234375 C 36.984375 30.621094 36.46875 30.578125 36.46875 30.191406 C 36.46875 30 36.726562 29.484375 37.027344 29.011719 Z M 37.804688 25 C 37.957031 25.0625 37.847656 25.105469 37.546875 25.105469 C 37.246094 25.105469 37.136719 25.0625 37.265625 25 C 37.417969 24.957031 37.675781 24.957031 37.804688 25 Z M 40.160156 14.679688 C 41.195312 14.210938 43.136719 13.695312 43.3125 13.867188 C 43.355469 13.910156 42.859375 14.253906 42.210938 14.636719 C 40.851562 15.410156 40.613281 15.667969 41.023438 15.945312 C 41.628906 16.355469 42.769531 15.96875 43.699219 15.066406 C 44.734375 14.058594 46.65625 13.351562 48.339844 13.351562 C 49.722656 13.351562 52.03125 13.84375 53.867188 14.53125 C 55.183594 15.023438 56.046875 15.496094 55.617188 15.496094 C 55.53125 15.496094 54.753906 15.667969 53.890625 15.902344 C 53.046875 16.117188 52.054688 16.375 51.707031 16.441406 C 50.542969 16.71875 51.363281 16.847656 54.082031 16.828125 C 55.722656 16.828125 56.910156 16.71875 57.039062 16.589844 C 57.429688 16.203125 57.96875 16.3125 59.15625 17.019531 C 60.820312 17.984375 64.25 19.65625 65.503906 20.109375 C 66.085938 20.324219 66.667969 20.582031 66.753906 20.667969 C 67.1875 21.007812 58.59375 21.246094 55.464844 20.96875 C 54.34375 20.882812 50.328125 20.066406 49.054688 19.679688 C 48.082031 19.402344 47.929688 19.273438 47.800781 18.648438 C 47.542969 17.511719 47.132812 16.890625 45.964844 15.925781 C 44.84375 15.003906 44.238281 14.894531 45.039062 15.773438 C 45.277344 16.03125 45.640625 16.699219 45.835938 17.253906 C 46.050781 17.8125 46.3125 18.328125 46.417969 18.414062 C 46.527344 18.476562 46.570312 18.605469 46.507812 18.714844 C 46.3125 19.035156 42.382812 17.769531 39.273438 16.375 C 37.957031 15.796875 37.871094 15.667969 38.5625 15.390625 C 38.90625 15.238281 39.621094 14.917969 40.160156 14.679688 Z M 41.367188 18.09375 C 42.683594 18.070312 43.332031 18.242188 42.902344 18.519531 C 42.554688 18.734375 41.109375 18.777344 40.117188 18.5625 C 39.511719 18.457031 39.46875 18.414062 39.8125 18.265625 C 40.050781 18.179688 40.742188 18.09375 41.367188 18.09375 Z M 41.628906 15.28125 C 41.734375 15.28125 42.382812 14.9375 43.074219 14.53125 C 44.757812 13.523438 44.929688 13.585938 43.570312 14.746094 C 42.511719 15.625 41.433594 16.011719 41.433594 15.496094 C 41.433594 15.367188 41.519531 15.28125 41.628906 15.28125 Z M 43.9375 24.527344 C 44.261719 24.398438 44.5625 24.335938 44.628906 24.398438 C 44.777344 24.550781 42.167969 27.082031 41.863281 27.082031 C 41.476562 27.082031 43.332031 24.808594 43.9375 24.527344 Z M 44.066406 21.933594 C 44.691406 22.0625 45.46875 22.277344 45.792969 22.402344 C 46.417969 22.640625 46.417969 23.003906 45.792969 23.003906 C 45.363281 23.003906 42.707031 21.890625 42.835938 21.761719 C 42.878906 21.71875 43.441406 21.78125 44.066406 21.933594 Z M 46.246094 16.699219 C 46.59375 16.828125 47.5625 18.476562 47.414062 18.648438 C 47.21875 18.820312 46.828125 18.5 46.375 17.769531 C 45.902344 16.996094 45.835938 16.527344 46.246094 16.699219 Z M 47.519531 10.347656 C 48.535156 10.882812 50.003906 11.933594 50.390625 12.472656 C 50.78125 12.984375 50.757812 12.984375 49.636719 12.34375 C 48.210938 11.527344 46.59375 10.261719 46.851562 10.175781 C 46.9375 10.132812 47.238281 10.21875 47.519531 10.347656 Z M 51.253906 22.746094 C 51.492188 22.617188 51.296875 22.917969 50.824219 23.433594 C 50.347656 23.925781 49.765625 24.421875 49.527344 24.550781 C 49.289062 24.679688 49.484375 24.378906 49.960938 23.863281 C 50.433594 23.371094 51.019531 22.875 51.253906 22.746094 Z M 56.113281 15.96875 C 57.085938 16.03125 57.085938 16.054688 56.480469 16.3125 C 56.132812 16.441406 55.269531 16.570312 54.535156 16.546875 L 53.199219 16.527344 L 54.167969 16.226562 C 54.710938 16.054688 55.574219 15.945312 56.113281 15.96875 Z M 56.113281 15.96875 " fill-opacity="1" fill-rule="evenodd"/></g><g clip-path="url(#892cafa543)"><path fill="#caa66c" d="M 148.332031 17.898438 C 147.835938 18.136719 147.703125 18.390625 147.511719 19.59375 C 147.382812 20.367188 147.210938 21.117188 147.121094 21.246094 C 146.796875 21.761719 146.085938 21.460938 144.964844 20.34375 C 144.230469 19.617188 143.453125 19.078125 142.871094 18.886719 C 142.007812 18.605469 141.769531 18.605469 140.238281 18.992188 C 139.308594 19.230469 138.617188 19.488281 138.726562 19.570312 C 138.8125 19.660156 139.675781 19.980469 140.625 20.300781 C 141.574219 20.601562 142.503906 20.945312 142.675781 21.074219 C 143.238281 21.417969 142.761719 21.503906 141.464844 21.265625 C 140.777344 21.136719 139.695312 21.074219 139.113281 21.136719 C 137.925781 21.265625 136.804688 20.902344 136.457031 20.324219 C 136.285156 19.980469 136.15625 19.980469 134.34375 20.34375 C 132.9375 20.625 131.429688 20.730469 128.730469 20.753906 L 125.039062 20.753906 L 126.464844 22.0625 C 127.238281 22.789062 127.824219 23.457031 127.757812 23.519531 C 127.652344 23.628906 126.917969 23.390625 124.5 22.402344 C 123.699219 22.082031 122.730469 21.222656 122.554688 20.664062 C 122.511719 20.496094 121.949219 20.238281 121.324219 20.085938 C 120.203125 19.789062 116.597656 18.136719 114.007812 16.699219 L 112.667969 15.96875 L 111.417969 16.441406 C 110.746094 16.71875 109.839844 17.085938 109.429688 17.253906 L 108.675781 17.578125 L 109.429688 17.707031 C 109.839844 17.769531 110.640625 17.898438 111.222656 17.964844 C 112.171875 18.089844 112.691406 18.5 111.871094 18.5 C 111.652344 18.5 110.769531 18.648438 109.90625 18.863281 C 108.457031 19.1875 108.222656 19.207031 107.097656 18.90625 C 106.363281 18.714844 105.652344 18.628906 105.328125 18.734375 C 105.027344 18.820312 103.472656 19.273438 101.875 19.765625 C 100.277344 20.238281 98.484375 20.6875 97.882812 20.773438 C 97.300781 20.859375 96.609375 20.988281 96.371094 21.074219 C 95.9375 21.222656 95.9375 21.222656 96.371094 21.351562 C 97.558594 21.695312 102.285156 22.789062 102.609375 22.789062 C 102.804688 22.789062 103.257812 22.574219 103.601562 22.316406 C 104.226562 21.867188 107.597656 21.074219 108.890625 21.097656 L 109.539062 21.097656 L 109 21.351562 C 105.890625 22.769531 104.636719 23.433594 104.898438 23.519531 C 107.230469 24.335938 110.164062 25.148438 110.726562 25.148438 C 111.15625 25.148438 111.699219 24.9375 112.214844 24.527344 C 113.574219 23.457031 115.710938 22.683594 116.359375 23.027344 C 116.792969 23.242188 116.921875 23.96875 116.554688 24.183594 C 116.121094 24.441406 116.359375 24.914062 117.007812 25.042969 C 117.914062 25.257812 118.238281 26.113281 117.632812 26.757812 C 117.351562 27.058594 117.203125 27.511719 117.203125 28.066406 C 117.203125 29.3125 116.8125 29.742188 115.777344 29.613281 C 114.761719 29.484375 113.964844 29.804688 113.964844 30.320312 C 113.964844 30.75 113.292969 31.027344 112.691406 30.835938 C 112.367188 30.75 112.214844 30.363281 112.019531 29.183594 C 111.523438 26.351562 111.199219 25.902344 108.824219 25.0625 C 106.90625 24.378906 106.691406 24.378906 107.273438 24.976562 C 107.53125 25.257812 108.070312 25.964844 108.480469 26.585938 C 108.890625 27.210938 109.324219 27.765625 109.429688 27.832031 C 109.558594 27.894531 109.648438 28.089844 109.648438 28.261719 C 109.648438 28.734375 106.234375 26.285156 105.523438 25.300781 C 105.179688 24.828125 104.898438 24.3125 104.898438 24.140625 C 104.898438 23.992188 104.636719 23.753906 104.3125 23.628906 C 103.839844 23.457031 99.480469 22.363281 99.242188 22.363281 C 99.199219 22.363281 99.890625 23.089844 100.753906 23.992188 C 102.199219 25.492188 102.628906 26.222656 102.089844 26.222656 C 101.984375 26.222656 101.875 26.15625 101.875 26.050781 C 101.875 25.964844 101.464844 25.644531 100.945312 25.320312 C 100.429688 25 99.390625 24.097656 98.636719 23.304688 C 97.386719 22.019531 97.167969 21.890625 96.066406 21.695312 C 95.398438 21.589844 93.691406 21.503906 92.269531 21.503906 C 90.84375 21.503906 88.015625 21.394531 85.964844 21.265625 C 82.75 21.050781 81.992188 21.050781 80.136719 21.375 C 78.972656 21.566406 77.222656 21.71875 76.273438 21.71875 C 74.609375 21.71875 69.667969 21.375 68.738281 21.179688 C 68.5 21.136719 67.960938 21.097656 67.53125 21.097656 C 66.644531 21.074219 65.671875 20.429688 65.910156 20.042969 C 66.019531 19.851562 66.210938 19.894531 66.601562 20.128906 C 67.378906 20.644531 71.457031 21.097656 75.539062 21.136719 C 78.625 21.160156 79.359375 21.097656 81.042969 20.664062 C 83.742188 19.980469 85.707031 19.164062 89.355469 17.277344 C 93.972656 14.851562 94.859375 14.445312 96.867188 13.78125 C 98.335938 13.285156 98.765625 13.050781 99.089844 12.515625 C 99.519531 11.828125 100.816406 10.777344 102.132812 10.113281 C 102.976562 9.683594 104.035156 9.574219 104.035156 9.898438 C 104.035156 10.15625 102.542969 11.355469 101.117188 12.257812 L 100.039062 12.941406 L 101.679688 12.8125 C 104.507812 12.601562 107.832031 13.242188 110.941406 14.617188 C 113.359375 15.6875 113.878906 15.625 114.222656 14.25 C 114.417969 13.480469 114.804688 12.902344 115.992188 11.699219 C 117.394531 10.238281 118.066406 9.8125 118.066406 10.347656 C 118.066406 10.457031 117.957031 10.5625 117.847656 10.5625 C 117.71875 10.5625 117.203125 11.441406 116.664062 12.492188 L 115.710938 14.445312 L 116.511719 14.296875 C 116.941406 14.230469 118.128906 13.800781 119.144531 13.351562 C 120.160156 12.902344 121.261719 12.449219 121.585938 12.363281 C 122.492188 12.148438 123.140625 10.925781 123.636719 8.546875 C 123.871094 7.410156 124.195312 6.316406 124.328125 6.144531 C 124.691406 5.714844 125.320312 5.757812 126.03125 6.292969 C 126.570312 6.679688 126.699219 6.699219 127.109375 6.445312 C 127.5 6.207031 127.652344 6.207031 128.167969 6.488281 C 128.6875 6.785156 128.75 6.957031 128.773438 7.988281 C 128.796875 8.953125 128.902344 9.210938 129.378906 9.617188 C 130.066406 10.238281 130.089844 10.5 129.398438 11.121094 C 128.859375 11.613281 128.664062 12.492188 129.074219 12.492188 C 129.441406 12.492188 129.335938 14.359375 128.945312 14.511719 C 128.082031 14.851562 126.742188 14.445312 125.730469 13.566406 C 125.210938 13.113281 122.902344 12.40625 122.578125 12.621094 C 122.449219 12.6875 121.863281 12.921875 121.261719 13.136719 L 120.179688 13.523438 L 121.863281 13.800781 C 122.769531 13.972656 123.570312 14.210938 123.613281 14.339844 C 123.699219 14.617188 121.367188 15.066406 119.878906 15.066406 C 119.296875 15.066406 118.453125 14.960938 118.023438 14.851562 C 117.351562 14.660156 116.898438 14.722656 115.34375 15.195312 L 113.488281 15.753906 L 114.179688 16.160156 C 114.570312 16.398438 115.648438 16.996094 116.597656 17.46875 C 118.023438 18.199219 118.390625 18.304688 118.691406 18.113281 C 119.878906 17.234375 120.484375 16.996094 122.144531 16.699219 C 124.328125 16.289062 124.328125 16.289062 124.328125 16.570312 C 124.328125 16.675781 124.195312 16.785156 124.023438 16.785156 C 123.851562 16.785156 123.246094 17.105469 122.664062 17.511719 C 122.058594 17.921875 121.175781 18.390625 120.65625 18.5625 C 119.769531 18.863281 119.75 18.886719 120.203125 19.121094 C 120.894531 19.507812 124.195312 20.171875 126.203125 20.34375 C 127.175781 20.410156 128.882812 20.410156 130.023438 20.324219 C 132.011719 20.171875 132.074219 20.171875 132.3125 19.550781 C 132.679688 18.691406 133.996094 17.46875 135.59375 16.546875 C 136.351562 16.097656 136.976562 15.777344 137.019531 15.816406 C 137.105469 15.902344 135.25 18.371094 134.492188 19.1875 C 134.210938 19.527344 134.039062 19.789062 134.171875 19.789062 C 134.664062 19.789062 142.007812 18.179688 142.113281 18.027344 C 142.566406 17.511719 143.34375 15.730469 143.625 14.617188 C 143.882812 13.628906 144.207031 12.984375 144.640625 12.578125 L 145.265625 12 L 145.785156 12.558594 C 146.386719 13.203125 146.496094 13.222656 147.316406 12.921875 C 147.792969 12.75 147.964844 12.792969 148.417969 13.285156 C 148.980469 13.886719 149.085938 14.722656 148.699219 15.558594 C 148.546875 15.925781 148.523438 16.3125 148.675781 16.847656 C 148.894531 17.578125 148.871094 17.664062 148.332031 17.898438 Z M 148.160156 13.695312 C 147.617188 13.15625 147.078125 13.285156 146.195312 14.1875 C 144.964844 15.433594 143.90625 16.785156 144.1875 16.785156 C 144.316406 16.785156 145.113281 16.289062 145.957031 15.710938 C 146.796875 15.109375 147.640625 14.636719 147.835938 14.636719 C 148.03125 14.660156 147.898438 14.808594 147.511719 15.023438 C 146.777344 15.410156 144.597656 17.042969 144.683594 17.125 C 144.707031 17.148438 145.480469 16.976562 146.386719 16.71875 C 147.855469 16.3125 148.050781 16.183594 148.246094 15.605469 C 148.570312 14.636719 148.546875 14.058594 148.160156 13.695312 Z M 147.382812 16.824219 C 146.863281 16.890625 146.105469 17.085938 145.699219 17.277344 L 144.941406 17.597656 L 146.472656 17.621094 C 148.050781 17.640625 148.289062 17.578125 148.289062 17.042969 C 148.289062 16.804688 148.070312 16.761719 147.382812 16.824219 Z M 145.976562 18.929688 C 145.289062 18.800781 144.488281 18.628906 144.1875 18.5625 C 143.710938 18.457031 143.753906 18.523438 144.445312 19.058594 C 144.898438 19.402344 145.308594 19.851562 145.375 20.066406 C 145.460938 20.28125 145.742188 20.601562 146.042969 20.773438 C 146.734375 21.222656 147.210938 20.859375 147.210938 19.871094 C 147.210938 19.1875 147.1875 19.164062 145.976562 18.929688 Z M 145.699219 18.136719 C 144.554688 18.089844 144.402344 18.136719 144.835938 18.304688 C 145.136719 18.433594 145.785156 18.605469 146.300781 18.691406 C 147.101562 18.84375 147.230469 18.820312 147.164062 18.523438 C 147.101562 18.261719 146.796875 18.179688 145.699219 18.136719 Z M 145.265625 12.707031 C 144.878906 12.707031 144.359375 13.628906 143.992188 14.980469 L 143.582031 16.460938 L 144.835938 15.066406 C 146.019531 13.757812 146.066406 13.671875 145.761719 13.203125 C 145.566406 12.921875 145.351562 12.707031 145.265625 12.707031 Z M 138.421875 20.023438 C 137.0625 19.699219 136.78125 19.765625 137.191406 20.324219 C 137.453125 20.664062 137.820312 20.753906 139.179688 20.816406 C 140.730469 20.859375 140.796875 20.859375 140.191406 20.582031 C 139.847656 20.410156 139.046875 20.171875 138.421875 20.023438 Z M 135.121094 17.210938 C 134.535156 17.535156 132.53125 19.507812 132.53125 19.789062 C 132.53125 20.367188 133.847656 19.507812 134.839844 18.261719 C 135.660156 17.234375 135.746094 16.871094 135.121094 17.210938 Z M 128.945312 9.726562 C 128.535156 9.382812 128.40625 9.082031 128.46875 8.589844 C 128.515625 8.246094 128.46875 7.945312 128.382812 7.964844 C 128.277344 7.988281 128.148438 7.988281 128.039062 7.988281 C 127.800781 7.988281 125.644531 9.789062 125.273438 10.304688 C 124.972656 10.753906 124.996094 10.753906 126.527344 10.21875 C 128.730469 9.488281 128.859375 9.597656 126.722656 10.457031 C 124.433594 11.355469 124.261719 11.550781 125.449219 11.71875 C 126.851562 11.9375 129.507812 11.035156 129.507812 10.347656 C 129.507812 10.285156 129.25 10.003906 128.945312 9.726562 Z M 128.601562 12.34375 C 128.40625 11.828125 128.234375 11.65625 127.996094 11.765625 C 127.824219 11.828125 126.851562 11.957031 125.835938 12.042969 L 124 12.191406 L 125.859375 12.363281 C 126.894531 12.449219 127.84375 12.621094 127.996094 12.707031 C 128.148438 12.792969 127.605469 12.8125 126.785156 12.75 L 125.296875 12.644531 L 125.988281 13.222656 C 126.832031 13.929688 127.929688 14.402344 128.449219 14.273438 C 128.925781 14.144531 128.988281 13.394531 128.601562 12.34375 Z M 128.167969 6.957031 C 127.5 6.292969 126.636719 6.9375 125.1875 9.144531 C 124.585938 10.046875 124.109375 10.820312 124.109375 10.839844 C 124.109375 10.863281 124.734375 10.304688 125.492188 9.597656 C 126.269531 8.867188 127.238281 8.09375 127.652344 7.878906 C 128.515625 7.429688 128.558594 7.34375 128.167969 6.957031 Z M 125.058594 21.503906 C 124.195312 20.964844 123.03125 20.601562 123.03125 20.859375 C 123.03125 21.308594 125.210938 22.574219 125.988281 22.574219 C 126.441406 22.574219 126.011719 22.082031 125.058594 21.503906 Z M 125.6875 6.570312 C 125.144531 6.164062 124.585938 6.207031 124.457031 6.636719 C 124.195312 7.492188 123.679688 10.199219 123.765625 10.285156 C 123.871094 10.390625 126.03125 7.320312 126.03125 7.042969 C 126.054688 6.9375 125.878906 6.722656 125.6875 6.570312 Z M 121.195312 17.296875 C 120.09375 17.554688 118.929688 18.136719 118.929688 18.433594 C 118.929688 18.691406 120.765625 18.261719 121.5625 17.8125 C 122.707031 17.167969 122.578125 16.996094 121.195312 17.296875 Z M 119.039062 14.101562 C 118.300781 14.210938 118.085938 14.316406 118.238281 14.464844 C 118.519531 14.746094 121.5625 14.765625 121.996094 14.511719 C 122.425781 14.230469 120.222656 13.910156 119.039062 14.101562 Z M 117.503906 25.902344 C 117.417969 25.707031 117.117188 25.449219 116.8125 25.34375 C 116.230469 25.128906 113.101562 25.320312 113.101562 25.578125 C 113.101562 25.664062 113.617188 25.878906 114.246094 26.074219 C 115.109375 26.351562 115.195312 26.394531 114.609375 26.328125 C 114.203125 26.285156 113.511719 26.179688 113.101562 26.113281 L 112.34375 25.988281 L 113.207031 26.523438 C 114.9375 27.59375 114.9375 27.59375 112.667969 26.695312 C 112.300781 26.542969 113.597656 28.066406 114.265625 28.605469 C 114.523438 28.796875 115.042969 29.054688 115.453125 29.183594 C 116.402344 29.503906 116.769531 29.226562 116.769531 28.152344 C 116.769531 27.660156 116.941406 27.144531 117.203125 26.84375 C 117.699219 26.246094 117.65625 26.328125 117.503906 25.902344 Z M 115.820312 12.257812 C 114.847656 13.203125 114.222656 14.316406 114.480469 14.574219 C 114.761719 14.851562 115.34375 14.273438 116.058594 13.007812 C 116.445312 12.320312 116.769531 11.65625 116.769531 11.527344 C 116.769531 11.421875 116.339844 11.742188 115.820312 12.257812 Z M 115.753906 23.457031 C 115.410156 23.457031 114.71875 23.648438 114.179688 23.882812 L 113.207031 24.292969 L 114.179688 24.183594 L 115.152344 24.078125 L 114.308594 24.398438 C 113.078125 24.871094 113.101562 24.9375 114.523438 24.9375 C 115.625 24.9375 115.84375 24.871094 116.035156 24.441406 C 116.445312 23.648438 116.382812 23.433594 115.753906 23.457031 Z M 113.511719 28.390625 C 112.539062 27.445312 112.238281 27.359375 112.710938 28.195312 C 113.207031 29.074219 113.792969 29.632812 114.09375 29.503906 C 114.265625 29.441406 114.394531 29.375 114.394531 29.332031 C 114.394531 29.3125 113.984375 28.882812 113.511719 28.390625 Z M 112.972656 29.011719 C 112.648438 28.539062 112.367188 28.152344 112.34375 28.152344 C 112.195312 28.152344 112.539062 29.996094 112.734375 30.234375 C 113.015625 30.621094 113.53125 30.578125 113.53125 30.191406 C 113.53125 29.996094 113.273438 29.484375 112.972656 29.011719 Z M 112.195312 25 C 112.042969 25.0625 112.152344 25.109375 112.453125 25.109375 C 112.753906 25.109375 112.863281 25.0625 112.734375 25 C 112.582031 24.957031 112.324219 24.957031 112.195312 25 Z M 109.839844 14.679688 C 108.804688 14.210938 106.863281 13.695312 106.691406 13.867188 C 106.644531 13.910156 107.144531 14.25 107.789062 14.636719 C 109.148438 15.410156 109.386719 15.667969 108.976562 15.949219 C 108.371094 16.355469 107.230469 15.96875 106.300781 15.066406 C 105.265625 14.058594 103.34375 13.351562 101.660156 13.351562 C 100.277344 13.351562 97.96875 13.84375 96.132812 14.53125 C 94.816406 15.023438 93.953125 15.496094 94.382812 15.496094 C 94.46875 15.496094 95.246094 15.667969 96.109375 15.902344 C 96.953125 16.117188 97.945312 16.375 98.292969 16.441406 C 99.457031 16.71875 98.636719 16.847656 95.917969 16.824219 C 94.277344 16.824219 93.089844 16.71875 92.960938 16.589844 C 92.570312 16.203125 92.03125 16.3125 90.84375 17.019531 C 89.179688 17.984375 85.75 19.660156 84.496094 20.109375 C 83.914062 20.324219 83.332031 20.582031 83.246094 20.664062 C 82.8125 21.007812 91.40625 21.246094 94.535156 20.964844 C 95.65625 20.882812 99.671875 20.066406 100.945312 19.679688 C 101.917969 19.402344 102.070312 19.273438 102.199219 18.648438 C 102.457031 17.511719 102.867188 16.890625 104.035156 15.925781 C 105.15625 15.003906 105.761719 14.894531 104.960938 15.777344 C 104.726562 16.03125 104.359375 16.699219 104.164062 17.253906 C 103.949219 17.8125 103.6875 18.328125 103.582031 18.414062 C 103.472656 18.476562 103.429688 18.605469 103.492188 18.714844 C 103.6875 19.035156 107.617188 17.769531 110.726562 16.375 C 112.042969 15.796875 112.128906 15.667969 111.4375 15.390625 C 111.09375 15.238281 110.378906 14.917969 109.839844 14.679688 Z M 108.632812 18.089844 C 107.316406 18.070312 106.667969 18.242188 107.097656 18.523438 C 107.445312 18.734375 108.890625 18.777344 109.882812 18.5625 C 110.488281 18.457031 110.53125 18.414062 110.1875 18.261719 C 109.949219 18.179688 109.257812 18.089844 108.632812 18.089844 Z M 108.371094 15.28125 C 108.265625 15.28125 107.617188 14.9375 106.925781 14.53125 C 105.242188 13.523438 105.070312 13.585938 106.429688 14.746094 C 107.488281 15.625 108.566406 16.011719 108.566406 15.496094 C 108.566406 15.367188 108.480469 15.28125 108.371094 15.28125 Z M 106.0625 24.527344 C 105.738281 24.398438 105.4375 24.335938 105.371094 24.398438 C 105.222656 24.550781 107.832031 27.082031 108.136719 27.082031 C 108.523438 27.082031 106.667969 24.808594 106.0625 24.527344 Z M 105.933594 21.933594 C 105.308594 22.0625 104.53125 22.273438 104.207031 22.402344 C 103.582031 22.640625 103.582031 23.003906 104.207031 23.003906 C 104.636719 23.003906 107.292969 21.890625 107.164062 21.761719 C 107.121094 21.71875 106.558594 21.78125 105.933594 21.933594 Z M 103.753906 16.699219 C 103.40625 16.824219 102.4375 18.476562 102.585938 18.648438 C 102.78125 18.820312 103.167969 18.5 103.625 17.769531 C 104.097656 16.996094 104.164062 16.527344 103.753906 16.699219 Z M 102.480469 10.347656 C 101.464844 10.882812 99.996094 11.9375 99.609375 12.472656 C 99.21875 12.984375 99.242188 12.984375 100.363281 12.34375 C 101.789062 11.527344 103.40625 10.261719 103.148438 10.175781 C 103.0625 10.132812 102.761719 10.21875 102.480469 10.347656 Z M 98.746094 22.746094 C 98.507812 22.617188 98.699219 22.917969 99.175781 23.433594 C 99.652344 23.925781 100.234375 24.421875 100.472656 24.550781 C 100.710938 24.675781 100.515625 24.378906 100.039062 23.863281 C 99.566406 23.371094 98.980469 22.875 98.746094 22.746094 Z M 93.886719 15.96875 C 92.917969 16.03125 92.917969 16.054688 93.519531 16.3125 C 93.867188 16.441406 94.730469 16.570312 95.464844 16.546875 L 96.800781 16.527344 L 95.832031 16.226562 C 95.289062 16.054688 94.425781 15.949219 93.886719 15.96875 Z M 93.886719 15.96875 " fill-opacity="1" fill-rule="evenodd"/></g></svg>